<svg width="27" height="28" viewBox="0 0 27 28" fill="none" xmlns="http://www.w3.org/2000/svg">
<path d="M22.9466 8.69499L24 6.36166L26.3333 5.30833C26.8533 5.06833 26.8533 4.33499 26.3333 4.09499L24 3.04166L22.9466 0.694993C22.7066 0.174993 21.9733 0.174993 21.7333 0.694993L20.68 3.02833L18.3333 4.08166C17.8133 4.32166 17.8133 5.05499 18.3333 5.29499L20.6666 6.34833L21.72 8.69499C21.96 9.21499 22.7066 9.21499 22.9466 8.69499ZM12.3333 10.695L10.2133 6.02833C9.74664 4.98833 8.2533 4.98833 7.78664 6.02833L5.66664 10.695L0.999971 12.815C-0.0400293 13.295 -0.0400293 14.775 0.999971 15.2417L5.66664 17.3617L7.78664 22.0283C8.26664 23.0683 9.74664 23.0683 10.2133 22.0283L12.3333 17.3617L17 15.2417C18.04 14.7617 18.04 13.2817 17 12.815L12.3333 10.695ZM21.72 19.3617L20.6666 21.695L18.3333 22.7483C17.8133 22.9883 17.8133 23.7217 18.3333 23.9617L20.6666 25.015L21.72 27.3617C21.96 27.8817 22.6933 27.8817 22.9333 27.3617L23.9866 25.0283L26.3333 23.975C26.8533 23.735 26.8533 23.0017 26.3333 22.7617L24 21.7083L22.9466 19.3617C22.7066 18.8417 21.96 18.8417 21.72 19.3617Z" fill="#292D33"/>
</svg>
